HIERARCHY
ROOT Hips
{
	OFFSET	0.000000	0.000000	0.000000
	CHANNELS 6 Xposition Yposition Zposition Zrotation Xrotation Yrotation
	JOINT LeftUpLeg
	{
		OFFSET	12.830505	-7.049846	-1.643436
		CHANNELS 3 Zrotation Xrotation Yrotation
		JOINT LeftLeg
		{
			OFFSET	0.620834	-39.957500	-1.919341
			CHANNELS 3 Zrotation Xrotation Yrotation
			JOINT LeftFoot
			{
				OFFSET	-0.413890	-44.704761	-3.870325
				CHANNELS 3 Zrotation Xrotation Yrotation
				JOINT LeftFootHeel
				{
					OFFSET	0.164738	-8.918193	-6.555130
					CHANNELS 3 Zrotation Xrotation Yrotation
					End Site
					{
						OFFSET	-0.604053	0.000000	21.044330
					}
				}
			}
		}
	}
	JOINT RightUpLeg
	{
		OFFSET	-12.830505	-7.049846	-1.643436
		CHANNELS 3 Zrotation Xrotation Yrotation
		JOINT RightLeg
		{
			OFFSET	-0.620834	-39.957500	-1.919341
			CHANNELS 3 Zrotation Xrotation Yrotation
			JOINT RightFoot
			{
				OFFSET	0.413890	-44.704761	-3.870325
				CHANNELS 3 Zrotation Xrotation Yrotation
				JOINT RightFootHeel
				{
					OFFSET	-0.164738	-8.918193	-6.555130
					CHANNELS 3 Zrotation Xrotation Yrotation
					End Site
					{
						OFFSET	0.604053	0.000000	21.044330
					}
				}
			}
		}
	}
	JOINT Spine
	{
		OFFSET	0.000000	12.498170	1.820647
		CHANNELS 3 Zrotation Xrotation Yrotation
		JOINT Spine1
		{
			OFFSET	0.000000	7.620000	0.000000
			CHANNELS 3 Zrotation Xrotation Yrotation
			JOINT LeftShoulder
			{
				OFFSET	9.167800	29.136339	-5.551221
				CHANNELS 3 Zrotation Xrotation Yrotation
				JOINT LeftArm
				{
					OFFSET	12.133453	-3.880866	1.461963
					CHANNELS 3 Zrotation Xrotation Yrotation
					JOINT LeftForeArm
					{
						OFFSET	2.507115	-31.664908	-1.069404
						CHANNELS 3 Zrotation Xrotation Yrotation
						JOINT LeftHand
						{
							OFFSET	4.116172	-24.512624	5.009439
							CHANNELS 3 Zrotation Xrotation Yrotation
							End Site
							{
								OFFSET	-0.213136	-10.931856	2.182134
							}
						}
					}
				}
			}
			JOINT RightShoulder
			{
				OFFSET	-9.167800	29.136339	-5.551221
				CHANNELS 3 Zrotation Xrotation Yrotation
				JOINT RightArm
				{
					OFFSET	-12.133453	-3.880866	1.461963
					CHANNELS 3 Zrotation Xrotation Yrotation
					JOINT RightForeArm
					{
						OFFSET	-2.507115	-31.664908	-1.069404
						CHANNELS 3 Zrotation Xrotation Yrotation
						JOINT RightHand
						{
							OFFSET	-4.116172	-24.512624	5.009439
							CHANNELS 3 Zrotation Xrotation Yrotation
							End Site
							{
								OFFSET	0.213136	-10.931856	2.182134
							}
						}
					}
				}
			}
			JOINT Neck
			{
				OFFSET	0.000000	32.926272	-3.635654
				CHANNELS 3 Zrotation Xrotation Yrotation
				JOINT Head
				{
					OFFSET	0.000000	12.481178	4.646143
					CHANNELS 3 Zrotation Xrotation Yrotation
					End Site
					{
						OFFSET	0.000000	17.715204	-2.222063
					}
				}
			}
		}
	}
}
MOTION
Frames:     9
Frame Time: 0.016667
8.373584	98.587179	2.276896	3.112051	3.666816	21.402042	5.975351	-8.165429	21.733255	2.659419	25.657152	5.826004	-11.937099	-14.601956	4.214640	0.	0.	0.	-18.247473	-27.648869	-7.632876	-5.958071	31.880037	12.095578	10.006496	-4.860457	0.022748	0.	0.	0.	-0.000000	-0.000001	-0.000002	6.490782	8.160866	-2.257865	11.977004	-6.088404	4.858560	-9.790543	-60.754288	-19.567104	-86.751099	-45.752491	-73.209679	14.621582	9.159085	-14.933591	-10.298753	8.201007	7.406621	-20.355240	-36.116554	-7.419950	-75.269997	-115.889107	-82.324081	-13.129852	-1.050558	17.289301	-8.960719	10.207374	-10.477107	2.923688	-9.540872	-1.334031	
9.037870	98.889234	2.584699	2.801815	4.164199	19.575651	5.427934	-7.394379	21.858418	2.217559	23.961227	8.015294	-12.240121	-13.909116	3.947772	0.	0.	0.	-17.699354	-27.554176	-6.111944	-5.553261	29.736055	11.595196	9.977139	-3.861327	0.352834	0.	0.	0.	-0.000000	0.000001	0.000003	9.039091	5.188130	-6.490881	12.369037	-5.888749	3.683493	-13.940500	-66.298080	-25.819387	-59.300056	-47.675365	-54.414822	15.005153	7.689263	-17.532366	-10.416140	9.633228	7.165597	-21.235876	-37.273075	-5.070474	-79.194283	-117.576172	-87.460411	-13.419692	-1.086971	16.791817	-12.081349	10.720988	-5.989536	2.853882	-9.135776	-1.467852	
9.700872	99.149421	2.992276	2.621083	4.768024	17.810898	5.008008	-6.774989	22.558887	1.710169	22.618961	9.761231	-12.604900	-13.353386	3.452419	0.	0.	0.	-17.484442	-27.535950	-5.000500	-5.178355	27.789417	11.032977	9.947840	-2.952702	1.065312	0.	0.	0.	-0.000000	-0.000001	-0.000001	10.977936	2.732992	-10.566752	12.325336	-6.653613	2.317560	-24.892139	-71.645470	-39.593243	-28.708542	-37.988716	-33.053692	14.366845	3.011516	-19.110691	-10.502194	10.093602	6.791032	-21.906200	-37.672935	-3.048418	-81.389488	-119.504601	-89.759308	-13.800420	-0.841389	16.811756	-14.758692	10.267618	-2.506627	3.426021	-8.422894	0.353987	
10.384205	99.522509	3.771221	2.826458	5.540466	15.050020	4.336613	-6.082202	23.846090	1.057367	21.562334	11.626250	-13.088521	-12.984552	3.128954	0.	0.	0.	-17.511421	-27.684465	-4.553661	-5.168211	25.527420	11.205404	9.935508	-1.710814	2.652819	0.	0.	0.	-0.000000	0.000000	-0.000001	13.290511	1.083583	-18.059937	12.672447	-9.089069	1.208790	-53.693405	-77.767715	-71.926590	-0.090804	-10.721559	-16.176079	12.198801	-2.026558	-16.318096	-10.710932	8.894862	6.709950	-22.742210	-38.051022	-2.738331	98.257347	-54.487106	89.875122	-14.357302	-0.429307	17.136578	-19.881630	5.916277	-0.549498	5.623497	-5.712706	8.409140	
10.896829	99.605789	4.072673	3.055138	5.566504	13.038463	3.867379	-5.490979	24.562798	0.624344	21.446949	12.714425	-13.219601	-13.118474	3.283044	0.	0.	0.	-17.399801	-27.870230	-4.357710	-5.464857	24.647083	12.031307	9.903447	-1.058809	3.542072	0.	0.	0.	0.000000	0.000000	0.000001	14.936797	0.712392	-23.788616	12.421597	-10.114755	0.858339	-53.231327	-82.141220	-75.739372	6.780532	-2.164346	-10.757274	13.578371	0.077841	-16.493444	-11.153565	8.271687	6.863696	-21.638994	-40.534637	2.303295	96.864906	-54.367355	89.224121	-14.560732	-0.195809	17.330462	-20.029024	4.138570	-4.329340	4.509423	-4.806163	19.210623	
11.390079	99.586914	4.302344	3.458425	5.806406	10.671729	3.158082	-5.404732	25.142790	0.192468	21.783773	13.896546	-13.178910	-13.570631	3.814393	0.	0.	0.	-17.418631	-28.764986	-3.910032	-5.778691	24.308733	13.026780	9.874791	-0.534194	4.344507	0.	0.	0.	0.000000	0.000000	-0.000001	16.411001	0.868242	-28.107691	11.526530	-10.559418	4.183662	-56.806179	-82.033707	-78.440483	10.417023	-0.593605	-11.759275	15.453990	-1.163319	-16.142410	-11.171486	7.718751	7.073080	-22.566044	-42.635021	2.860886	96.881409	-52.155823	89.297249	-14.800436	0.034889	17.535097	-17.656124	1.900290	-8.262738	0.729703	-5.010427	28.462870	
11.846683	99.497452	4.555047	3.960501	6.595486	8.001950	2.187282	-6.030955	25.815586	-0.093553	22.293163	14.872749	-13.058621	-14.250954	4.711286	0.	0.	0.	-17.561035	-30.500576	-3.577280	-6.168961	24.189104	14.080307	9.873779	-0.028196	5.348560	0.	0.	0.	-0.000001	0.000001	-0.000000	16.024549	-0.141056	-30.975960	11.928843	-10.161728	4.247611	-9.168146	-85.596024	-30.894514	8.586785	-3.473158	-14.687152	16.639856	-2.547617	-13.081304	-10.860161	8.914968	7.800651	-23.040796	-44.573803	2.814192	96.794037	-50.619968	89.528137	-15.052053	0.225879	17.787958	-14.265932	1.623547	-9.135984	-3.748620	-5.504693	33.047455	
12.326325	99.316107	4.310643	3.672911	6.453573	8.019025	2.187282	-6.030955	25.815586	-0.093553	22.293163	14.872749	-13.058621	-14.250954	4.711286	0.	0.	0.	-17.561035	-30.500576	-3.577280	-6.168961	24.189104	14.080307	9.873779	-0.028196	5.348560	0.	0.	0.	-0.000001	0.000001	-0.000000	16.381351	-0.782292	-34.856911	11.910893	-9.022104	8.029303	-9.168139	-85.596207	-30.894531	8.586785	-3.473156	-14.687156	16.639858	-2.547614	-13.081306	-10.759033	9.256318	7.718833	-22.632328	-45.125557	2.999516	-82.770920	-130.432022	-89.985603	-15.220216	0.358175	18.007843	-12.929811	2.316903	-8.597918	-5.564854	-4.479002	33.036575	
12.854430	99.001397	4.845518	4.273747	7.114904	2.972881	1.018003	-6.113756	26.588608	-0.784932	23.071678	17.051203	-13.074844	-15.975724	6.392695	0.	0.	0.	-16.899611	-32.986702	-1.858320	-6.434101	23.946220	13.835411	10.111983	0.740832	8.742758	0.	0.	0.	0.000000	-0.000001	-0.000002	16.370836	-0.581011	-32.240761	12.561715	-10.593078	4.114358	64.495972	-83.450905	39.106876	6.554399	-2.922009	-11.483362	18.253687	-3.790825	-9.502459	-11.203119	8.630326	6.927067	-22.033449	-44.113686	3.113008	-81.248619	-131.286636	-89.106071	-15.269109	0.391060	17.944004	-14.542388	2.883540	-7.606763	-1.601167	-2.537262	31.758631	
